<?xml version="1.0" encoding="utf-8"?>
<!-- Generator: Adobe Illustrator 21.0.0, SVG Export Plug-In . SVG Version: 6.00 Build 0)  -->
<svg version="1.1" id="Слой_1" xmlns="http://www.w3.org/2000/svg" xmlns:xlink="http://www.w3.org/1999/xlink" x="0px" y="0px"
	 viewBox="0 0 243 154" style="enable-background:new 0 0 243 154;" xml:space="preserve">
<style type="text/css">
	.st0{fill:#FFFFFF;}
	.st1{font-family:'MyriadPro-Cond';}
	.st2{font-size:15.2327px;}
</style>
<g>
	<text transform="matrix(1.0017 0 0 1 61.2129 110.8057)" class="st0 st1 st2">ц</text>
	<text transform="matrix(1.0017 0 0 1 67.4082 110.8057)" class="st0 st1 st2">ен</text>
	<text transform="matrix(1.0017 0 0 1 79.0654 110.8057)" class="st0 st1 st2">т</text>
	<text transform="matrix(1.0017 0 0 1 83.7959 110.8057)" class="st0 st1 st2">р эс</text>
	<text transform="matrix(1.0017 0 0 1 102.1973 110.8057)" class="st0 st1 st2">т</text>
	<text transform="matrix(1.0017 0 0 1 106.7607 110.8057)" class="st0 st1 st2">е</text>
	<text transform="matrix(1.0017 0 0 1 112.2227 110.8057)" class="st0 st1 st2">т</text>
	<text transform="matrix(1.0017 0 0 1 116.9521 110.8057)" class="st0 st1 st2">и</text>
	<text transform="matrix(1.0017 0 0 1 123.0547 110.8057)" class="st0 st1 st2">ческ</text>
	<text transform="matrix(1.0017 0 0 1 144.7539 110.8057)" class="st0 st1 st2">ой </text>
	<text transform="matrix(1.0017 0 0 1 82.5273 123.4414)" class="st0 st1 st2">м</text>
	<text transform="matrix(1.0017 0 0 1 90.6758 123.4414)" class="st0 st1 st2">едицины</text>
</g>
<g>
	<path class="st0" d="M125.8,58.6c0.3-3.5-1.2-6.2-3.5-8.3c-2.8-2.5-7-3.9-10.3-4.8c1.9-1.9,4.9-5,3.4-8c-1-1.9-4.1-3.4-6-3.9
		c-3.1-0.8-8.8-1.9-18-1.6c-11.7,0.4-24.2,2.7-35.4,7c-6.5,2.6-11.5,5.2-14.7,7.3c-3.3,2.1-5.6,4-7.3,6c-1.7,2-2.9,3.9-3.5,5.7
		c-0.9,2.8,0.7,4.2,1.9,5c0.8,0.6,1.7,0.9,2.1,0.9c0.5-0.2,0.1-0.5-0.4-0.8c0,0-2.9-1.7-2.1-4.2c0.5-1.5,2.1-3.6,3.9-5.1
		c5.6-5,14.8-9.3,21.9-12.1c6.5-2.3,12.7-4,19.3-5.3c2.4-0.4,4.8-0.9,7.2-1.2c-1.5,3-2.9,5.8-4.4,8.5c-1.2,0.2-2.4,0.4-3.6,0.7
		c-4.1,1-10.1,2.7-15,5.5c-2.8,1.6-5,3.2-5.6,5.7c-0.2,1-0.2,1.9,0.2,2.8l0,0c0.6,1.1,1.7,2.3,5.7,3.1c1.8,0.4,3.7,0.5,6.6,0.4
		c-0.3,0.5-0.7,0.9-1,1.4c-1.2,0.1-2.4,0.3-3.6,0.5c-7,1-13.2,2.6-18.8,4.4c-6,1.8-10.1,3.2-15.6,5.5c-7,2.8-17.3,8.1-21,15.3
		c-0.5,0.9-0.5,2-0.7,2.9v0l0,0h0c-0.7,4.6,3.8,8.3,9.7,10.6c1.1,0.4,2.2,0.8,3.3,1.1c1.1,0.3,2.3,0.6,3.4,0.7l0,0
		c4,0.7,7.5,1.2,12.5,1c19.8-0.7,49.1-8.6,69.1-22.6C112,77.9,125.1,68.2,125.8,58.6z M87,34.8c1.4-0.1,2.8-0.2,4.2-0.3
		c4.1-0.1,19.2-1.2,21.9,4.2c0.2,0.5,0.1,1.7-0.4,2.5l0,0l0,0l0,0c0,0,0,0,0,0l0,0c-0.9,1.4-2.1,2.6-3.3,3.7
		c-0.9-0.2-1.9-0.4-2.8-0.6c-6-1.1-12.4-1.9-18.5-1.6c-1.7,0.1-3.5,0.2-5.3,0.5C84.2,40.6,85.6,37.8,87,34.8z M80.8,46.5
		c3.1-0.4,5.7-0.6,7.4-0.8c3.4-0.2,6.4-0.3,10.6-0.1l0,0c1.2,0.1,2.5,0.2,3.6,0.4c1.5,0.2,3,0.5,4.5,0.8c-8.5,6.4-23.8,11.9-34.9,13
		c1.2-1.7,2.4-3.4,3.5-5C77.4,52,79.2,49.3,80.8,46.5z M57.4,57.4c-0.4-1.1,0-2.6,3.3-4.9c4-2.8,11.2-4.5,17.5-5.5
		c-1.4,2.4-2.9,4.8-4.5,7.2c-1.3,2-2.6,3.9-4,5.9C66.6,60.1,58.5,60,57.4,57.4z M21.2,100.9c-1.1-0.3-2.1-0.6-3.1-1
		c-6.4-2.4-8.8-5.9-7.8-9c1.7-6.1,13.9-12,20.4-14.7c5.5-2.2,9.9-3.9,15.3-5.6c6.5-2.1,13-3.8,19.6-4.9c-2.9,3.9-6,7.9-9.2,12
		c-0.9,1.3-2.1,2.1-1.9,2.3c0.3,0.2,1.7-0.2,2.7-1.1c3.6-3.9,7.4-8.7,11.1-13.6c4.1-0.6,8.2-1,12.5-1.1c4.3,0,9-0.3,13.4,0.1
		c5,0.4,7.6,0.8,9.8,1.4c0.4,0.1,1.2,0.5,1.5,0.6c0.4,0.2,2,0.4,2.5,0.3c0.4-0.1-1-1.3-2.8-1.9c-2.6-0.9-6.4-1.7-10.6-2
		c-4.7-0.4-9.5-0.6-13.9-0.5c-3.2,0.1-6.7,0.2-10.9,0.7c0.3-0.4,0.6-0.8,0.9-1.2c7.9-0.7,17.6-3.1,26.8-7.1c4-1.9,8.2-4.1,12.2-7.1
		c4.8,1.2,8.9,3.6,10.6,5.7c1.6,1.9,1.6,4,1.4,6c-0.4,3.3-3,7.4-7.3,11.5c-16,15-45.7,25.5-58.2,28C45.8,100.5,32.8,104,21.2,100.9z
		"/>
	<path class="st0" d="M117.6,77.4c-1.6,1.4-2.5,3.2-2.7,5.2c-0.2,1.6,0.5,2.5,1.4,3.2c1.6,1.2,4.3,0.9,6.1,0.5
		c2.2-0.5,5.5-2.3,7.7-4.3c4.1-0.2,7-0.9,10.2-2.4c1.8-0.8,3.7-1.9,5.6-3c-0.3,0.3-0.5,0.5-0.7,0.8c-0.5,0.7-0.8,1.4-0.9,2.1
		c-0.1,0.6-0.1,1.2,0.1,1.7c0.8,2.1,3.8,2.3,5.7,2v0c1.3-0.3,2.7-0.8,4.5-1.9c0.5-0.3,1.1-0.7,1.6-1.1c-0.6,1.7-0.6,3.2,0.4,4.1
		c1,0.9,2.9,0.5,4.3,0.1c3.3-1.1,5.5-3.4,8.2-4.9c1.9-1.2,3.4-2.2,4.8-3.1c-1.2,1.2-2.4,2.4-3.2,3.3c-0.7,0.8-1.3,1.5-1.3,2
		c-0.1,0.6,0.3,1.3,0.6,1.7c0.8,0.8,1.9,0.2,3.4-0.5c3.2-1.4,6.1-2.9,9.6-3.4v0c1.7-0.2,3.2-0.2,1.8,1c-1.4,1.4-4.4,3.2-4.5,4.6
		c-0.3,0.9,0.6,1.4,1.8,2.4c0.3,0.2,0.6,0.6,1,1.1c0.3,0.5,0.4,1.3,0.6,0.7c0.2-0.4,0.1-1.4-0.4-2.2c-0.7-1.1-0.8-1.5-0.7-2
		c0.1-0.6,1.2-1.6,2.3-2.8c1.6-1.6,3.2-4.2,0.4-5.1c-0.7-0.1-1.9-0.2-2.7-0.1h0c-1.8,0.3-5.7,1.2-8,2.3c-0.4,0.2,2.2-2.3,4.3-4.1
		c0.6-0.5,0.4-0.8-0.1-1.8c-0.4-1-0.9-1-1.4-0.7c-0.1,0-0.1,0-0.2,0.1c-0.4,0.2-5.8,3.5-7.3,4.3c-1.8,1-3.9,2.3-6,3.4
		c-1.9,1-4,2.2-5.7,2.2c-0.9,0-0.6-1-0.4-1.7c0.4-0.8,2.6-3.4,4.7-5c0.5-0.5,0.1-1.9-0.4-2.4c-0.1-0.1-0.1-0.1-0.2-0.1
		c-0.3-0.3-0.5-0.5-0.8-0.3c-0.8,0.5-5,3.7-8.1,5.8c-1.7,1.2-5,3-6.8,2c-0.6-0.3-0.2-1.4,0.6-2.5c1.3-1.6,4.9-3.4,5-3.4
		c0.4-0.3-0.1-2-0.3-2.3c-0.3-0.4-0.6-0.4-1.1-0.1c0,0-0.1,0.1-0.2,0.1c-1.5,0.8-8,4.1-11.8,5.3c-1.7,0.5-3.8,0.9-5.3,1
		c0.3-0.3,0.8-0.9,1.1-1.4c1.4-1.8,1.6-4.4,0.3-5.6c-2.3-2.1-6.8-0.8-9.2,1.4C122.5,74.6,119.5,75.7,117.6,77.4z M120.4,84.2
		c-4.3,0.6-4-1.7-0.6-5.1c1-0.8,2-1.6,3.3-2.1c-0.2,0.8-0.5,1.4-0.3,2.2c0.4,1.5,1.8,2.3,3.6,2.6C125.1,82.7,122.4,84,120.4,84.2z
		 M133.8,73.4c1.7,1.9-2.7,5.4-4.4,6.4c-1.3,0.2-3.9,0-4.5-1C123.9,76.9,131.8,71.5,133.8,73.4z"/>
	<path class="st0" d="M189.6,65.2c2.9-0.1,9.8-0.4,14.8-0.5c-2.6,3.7-10.5,14.7-13,19.5c-1,1.9,2.3,0.2,2.8-0.5
		c0.9-1.1,0.5-1.4,2.9-4.9c3.1-4.6,6.7-9.3,10.2-13.8c0.1-0.1,0.2-0.3,0.3-0.4c5.1,0,13.4,0.1,13.4,0.1c0.6,0,0.2-0.7,0.1-1.4
		c-0.1-0.6-0.3-1-0.9-1.1c0,0-2.7,0-6.1,0c-1.4,0-3,0-4.6,0.1c1.6-1.9,3.1-3.6,4.9-5.6c1.9-2,5-4.5,5.5-5.8c0.2-0.9-0.3-1.7-0.8-2.2
		c-0.4-0.4-0.8-0.7-1.1-0.6c0,0-0.1,0-0.1,0c-4.5,3.8-8.3,7.3-13.8,10.7c-3.1,1.9-6,2.8-6,2.9c0.6,1.1,4.7-0.7,6.6-2
		c2.1-1.1,4-2.2,5.8-3.6c0.2-0.1,0.4-0.3,0.7-0.5c-1.1,1.3-2.5,3-5.2,6.6c-6.3,0.4-15.3,1.2-15.3,1.2c-1.4,0.3-4.2,1-4.1,1.6
		C186.9,65.4,188.8,65.2,189.6,65.2z"/>
	<path class="st0" d="M242.3,67.3c-0.2-0.5-0.4-1.1-1.6-0.1c-0.9,0.8-2.5,2.2-4.6,4.3c-3.5,2.7-10.5,7.3-17.1,10
		c-1.6,0.7-9.3,4-13.1,2.7c-2-0.7-3.8-3-3.5-4.8c0.2-1.2,0.9-2.4,2.4-3.2c1.2-0.5,3.2-0.6,4.3,1.1c0.8,1.2,0.4,2.8,0.8,2.7
		c0.4-0.2,0.6-1.4,0.5-2.6c0,0-0.1-3.3-3.7-2.9c-1,0.2-1.9,0.4-2.7,1c-4.7,3.1-2.4,7.8-0.1,9.8c4.7,4.2,13.7-1,17.2-2.7
		c3.4-1.6,9-5.2,12-7.1c-1.9,1.7-5.2,5.2-7.5,7.8c-4.9,5.7-9.7,11.6-14.6,17.4l0,0c0,0-0.5,0.6-1.3,1.6c-0.1,0-0.1,0-0.2-0.1
		c-10.3-2.3-23,0-33.2,3.1c-0.9,0.3-2.3,0.7-3.6,1.2c-6.3,2.3-15.2,6.2-22.3,10.7c-4.9,3.1-8.5,6-12.1,9.1
		c-4.5,3.8-10,11.6-11.5,17.8c-0.8,4.9,0.4,6.2,2.1,7.3c7.4,4.2,20.8,3,27.6,0.5c15.7-5.9,27.7-16.7,37.9-27.3
		c2.9-3,11.6-14.2,15.9-19.6c1,0.2,1.9,0.5,2.5,0.9c0.8,0.5,1.6,1.1,2.1,1.6c1.6,2.1,1.6,3.3,0.6,5.6c-0.5,1.2-0.8,1.4-1.1,2.1
		c-0.5,1-0.1,0.9,0.3,0.3c0,0,2.9-3.4,2.7-6.1c-0.1-1.3-0.6-2.1-1.2-3c-0.6-0.9-1.6-1.7-2.6-2.3c-0.5-0.3-1-0.6-1.6-0.9
		c5.1-6.2,10.4-12.2,15.6-18.2c2.9-3.3,6.2-6.6,7.9-8.2c2.2-2.2,7.4-6.3,7.5-6.3C243.2,69.7,242.7,68.2,242.3,67.3z M192.4,122
		c-2.7,2.8-7.6,7.6-12.6,11.7h0c-1,0.8-2,1.6-2.9,2.3c-0.9,0.7-1.9,1.4-2.8,2l0,0l0,0l0,0c-4.5,3.2-10.9,6.9-18.4,9.6
		c-3.8,1.4-7.5,2.3-11.6,2.6c-4.2,0.4-11-0.1-13.8-2.1c-1.9-1.4-2-3.9,0-8.8c2.4-4.5,6.2-9.3,9.5-12.1c3.3-2.9,6.9-5.5,11.8-8.5
		c7.2-4.2,15.8-8,22.1-10.1c7.7-2.6,12.6-3.8,20.7-4.6c4.6-0.5,9.3-0.7,13.8,0C203.7,109.4,195.1,119.2,192.4,122z"/>
	<path class="st0" d="M187,94c3.6,0.4,4.9,0.7,5.2,0.8l0.1,0c0.7,0,2.8-1.2,3.1-1.8c0.1-0.2,0-0.3,0-0.3c-0.2-0.4-0.6-0.6-1-0.7
		c-0.3,0-28.5-3.1-53.4-2.3c-24.2,0.8-46.5,5.5-47.5,5.7c-0.3,0-0.7,0.2-0.9,0.5c-0.2,0.3-0.2,0.5-0.1,0.7c0.1,0.1,0.2,0.2,0.4,0.2
		c0,0,0.1,0,0.1,0c0.2,0,24-4.3,48.7-5C157.3,91.2,175,92.8,187,94z"/>
	<path class="st0" d="M39.1,38.8c-1.6,1-1.9,2-2.2,3.2c-0.3,1.4-0.7,2.9-3.3,4.8c-2.7,2-4.9,5.2-7.1,10.3l-0.9,2.1l1.2-2
		c0.3-0.5,0.6-0.9,0.8-1.4c2.1-3.6,3.5-5.9,8.3-8.3c4-2.2,5.7-4.5,5.2-7.2c0.2,0,0.4,0,0.6,0c0.7-0.1,1.2-0.4,1.6-1
		c0.4-0.6,0.6-1.2,0.5-1.8c-0.1-0.7-0.4-1.2-1-1.6c0,0,0,0,0,0c1.9-2.3,4.4-4.5,7.1-6c2.9-1.7,7.3-2.8,10.1-1.1
		c0.7,0.4,1.3,0.9,1.7,1.6c0.6,1,0.6,2.4,0,3.7c0,0,0,0.1-0.1,0.1c-0.5,0.9-1.5,1.9-2.5,1.9c-0.4,0-0.9-0.1-1.4-0.4
		c-0.7-0.4-1.1-1-1.2-1.5c0-0.2,0-0.5,0.2-0.7c0.3-0.6,0.9-0.9,1.3-0.6c0,0,0.1,0,0.1,0.1c0.1,0.1,0.3,0.4,0.2,0.6l0,0v0
		c-0.1,0.1-0.1,0.1-0.2,0.1c0,0-0.1,0-0.1-0.1l0.1-0.1l0.2-0.1l-0.1-0.1c0,0-0.1-0.1-0.2-0.2c-0.1,0-0.1-0.1-0.2-0.1l-0.1,0
		l-0.1,0.1c-0.1,0.1-0.2,0.1-0.2,0.3c-0.2,0.4,0,0.8,0.4,1.2c0.2,0.1,0.5,0.2,0.7,0.1c0.3-0.1,0.5-0.3,0.7-0.5l0,0
		c0.4-0.7,0-1.3-0.3-1.6c-0.1-0.1-0.2-0.2-0.3-0.2c-0.9-0.5-1.9,0.1-2.4,1c-0.2,0.3-0.4,0.8-0.3,1.4c0.2,0.8,0.7,1.6,1.6,2.1
		c0.6,0.3,1.2,0.5,1.8,0.5c1.4-0.1,2.7-1.3,3.3-2.4c0,0,0,0,0,0c0,0,0-0.1,0-0.1c0.8-1.5,0.8-3.3,0-4.6c-0.5-0.8-1.2-1.4-2-1.8
		c-1.1-0.6-2.4-0.9-3.8-0.9c-2.2,0-4.9,0.8-7.1,2l0,0c-2.7,1.6-5.2,3.7-7.1,6c0.6-4,2.4-8.5,4.9-12.1c2.1-3.1,6.1-6.2,9.7-5.9
		c0.9,0.1,1.7,0.4,2.5,0.8c1.1,0.7,1.8,2.2,1.7,3.8l0,0c0,0,0,0.1,0,0.1c-0.1,1.2-0.7,2.6-1.7,3.1c-0.4,0.2-1,0.3-1.6,0.3
		c-0.9-0.1-1.6-0.4-2-1c-0.1-0.2-0.2-0.5-0.2-0.8c0.1-0.7,0.5-1.3,1-1.3c0,0,0.1,0,0.2,0c0.1,0,0.5,0.2,0.5,0.6c0,0.2,0,0.2-0.2,0.2
		c-0.1,0-0.1,0-0.1,0l0.1-0.2l0.1-0.2l-0.2,0c0,0-0.1-0.1-0.3-0.1c-0.1,0-0.1,0-0.2,0l-0.2,0l-0.1,0.2c-0.1,0.1-0.1,0.2-0.1,0.4
		c0,0.5,0.3,0.9,1,0.9c0.3,0,0.5,0,0.7-0.2c0.2-0.2,0.4-0.5,0.4-0.9l0,0c0-0.8-0.5-1.3-1.1-1.5c-0.1,0-0.2-0.1-0.4-0.1
		c-1.1-0.1-1.9,1-2,2.1c-0.1,0.6,0.1,1.1,0.4,1.5c0.5,0.7,1.5,1.2,2.6,1.3c0.7,0.1,1.4-0.1,2-0.3c1.4-0.7,2.1-2.5,2.2-3.9
		c0-0.1,0-0.1,0-0.2c0.1-1.9-0.7-3.7-2.1-4.6c-0.9-0.5-1.8-0.9-2.8-0.9c-0.2,0-0.4,0-0.6,0c-3.8,0-7.7,3.1-9.9,6.3h0
		c-2.7,3.9-4.6,8.7-5.1,12.9c-0.2,0-0.3,0-0.5,0l0,0c-0.7,0.1-1.2,0.4-1.6,1c-0.4,0.5-0.5,1.1-0.5,1.8C39,38.4,39.1,38.6,39.1,38.8z
		"/>
	<path class="st0" d="M13.5,44.5c1.7,0.6,3.5,1,5.4,1.3c1.8,0.3,3.5,0.4,5.1,0.5l5.1,0.3l-5-1.2c-1.7-0.4-3.5-0.8-4.9-1.2
		c-1.3-0.3-2.6-0.7-3.8-1.2c-1.1-0.4-2-0.9-3.3-1.7c-1.1-0.7-2.5-1.6-3.7-2.9c-1.1-1.1-2.1-2.6-2.6-3.9c-0.4-1.1-0.6-2.1-0.4-3.1
		c0.1-0.8,0.4-1.5,0.9-2.2c0.5-0.7,1-1.1,1.7-1.4c0.8-0.3,1.8-0.5,2.9-0.4c1.2,0.1,2.7,0.4,4.1,0.9c1.5,0.6,2.9,1.3,4.3,2.1
		c1.7,0.9,3.2,1.8,4.5,2.6C25,34,26.4,34.9,28,36c1.4,1,3,2.1,4.5,3.2l2.4,1.7l-1.6-2.2c-2.5-3.4-5.1-6.9-6.9-9.9
		c-1.7-2.8-2.9-5.3-3.7-8.1c-0.8-2.5-1.2-4.8-1.5-6.7c-0.3-2-0.5-3.5-0.4-4.7c0.1-1.1,0.6-2.1,1.2-2.8c0.5-0.5,1.3-1,2.3-0.9
		c0.9,0.1,1.9,0.7,3,1.6c0.9,0.8,1.8,1.9,2.7,3.4c0.7,1.2,1.5,2.8,2.4,4.7c0.8,1.8,1.5,3.5,2,5.1c0.6,1.8,1.1,3.5,1.5,5
		c0.5,1.8,1,3.8,1.5,5.9l1.2,4.9l-0.4-5c-0.2-2-0.3-4.1-0.5-5.7c-0.2-1.6-0.5-2.7-0.7-4l-0.1-0.6c-0.3-1.2-0.5-2.5-1-4.1
		c-0.6-2.1-1.3-4-2-5.7c-1-2.1-2.2-4.1-3.6-5.8c-1.3-1.7-2.9-3.2-4.3-4.2C24.6,0.4,23.4,0,22.2,0c-1.2,0-2.3,0.4-3.3,1.1
		c-1.1,0.8-1.8,1.9-2.1,3.5c-0.4,1.5-0.5,3.7-0.3,6.1c0.1,2.2,0.5,4.4,1.1,6.7c0.6,2.2,1.4,4.5,2.4,6.6c0.9,1.9,1.9,3.7,3.1,5.5
		c0.5,0.8,1.1,1.5,1.6,2.2l-0.6-0.4c-0.7-0.5-1.6-1.1-2.6-1.8c-1.9-1.3-3.5-2.2-4.9-3c-1.7-0.9-3.3-1.6-5-2.1
		c-1.5-0.5-3-0.8-4.3-0.8c-1.4-0.1-2.5,0.1-3.4,0.5c-0.9,0.4-1.8,1.1-2.5,2c-0.9,1.1-1.4,2.3-1.5,3.4c-0.2,1.3,0.1,2.9,0.7,4.5
		c0.6,1.6,1.6,3.1,2.8,4.4c1.2,1.3,2.8,2.6,4.6,3.6C9.8,43.1,11.6,43.9,13.5,44.5z"/>
</g>
</svg>
