<?xml version="1.0" encoding="utf-8"?>
<!-- Generator: Adobe Illustrator 21.0.0, SVG Export Plug-In . SVG Version: 6.00 Build 0)  -->
<svg version="1.1" id="Слой_1" xmlns="http://www.w3.org/2000/svg" xmlns:xlink="http://www.w3.org/1999/xlink" x="0px" y="0px"
	 viewBox="0 0 30 30" style="enable-background:new 0 0 30 30;" xml:space="preserve">
<style type="text/css">
	.st0{fill:#020203;}
</style>
<g id="miu">
	<g id="Artboard-1" transform="translate(-827.000000, -299.000000)">
		<g id="slice" transform="translate(215.000000, 119.000000)">
		</g>
		<path id="cloud-cloud_download-arrow-down-2-glyph" class="st0" d="M840.6,323.8l-3.5-3.5l-1.9,1.9l6.7,6.7l6.7-6.7l-1.9-1.9
			l-3.5,3.5v-15.2h-2.7V323.8z M836.5,318.1l-3.2,0l-1-0.1c-3.1-0.5-5.4-3-5.4-6c0-2,1-3.7,2.6-4.8c-0.4-3,2.1-5.1,4.7-5.1
			c0.8,0,1.5,0.2,2.2,0.5c1-1.6,4-3.6,7.6-3.6c4.8,0,8.8,3.3,9.4,7.7c1.5,0.5,3.5,2.7,3.5,5.3c0,3-2.3,5.5-5.5,6l-1,0.1l-3.1,0v-2.7
			l3,0l0.7-0.1c1.8-0.3,3.1-1.7,3.1-3.3c0-1.4-1-2.6-2.5-3.1l-0.9-0.3l0-1c-0.1-3.3-3-5.9-6.7-5.9c-2.6,0-5,1.4-6.1,3.4l-0.9,1.6
			l-1.3-1.3c-0.4-0.4-0.9-0.6-1.6-0.6c-1.2,0-2,0.8-2,1.8c0,0.2,0.1,0.5,0.2,0.7l0.6,1.3l-1.3,0.6c-1.3,0.6-2,1.7-2,3
			c0,1.6,1.3,3,3,3.3l0.7,0.1l3.1,0V318.1L836.5,318.1z"/>
	</g>
</g>
</svg>
