<?xml version="1.0" encoding="utf-8"?>
<!-- Generator: Adobe Illustrator 21.0.0, SVG Export Plug-In . SVG Version: 6.00 Build 0)  -->
<svg version="1.1" id="Слой_1" xmlns="http://www.w3.org/2000/svg" xmlns:xlink="http://www.w3.org/1999/xlink" x="0px" y="0px"
	 viewBox="0 0 28 28" style="enable-background:new 0 0 28 28;" xml:space="preserve">
<style type="text/css">
	.st0{fill:#FFFFFF;}
</style>
<g>
	<g>
		<path class="st0" d="M2.8,26.9c-0.4,0-0.7-0.2-0.7-0.5C2,25.7,2,25,1.9,24.3l-0.2-4.2c0-0.4-0.1-0.9-0.1-1.3l-0.1-1.1
			c-0.1-0.7-0.1-1.4-0.2-2.1c-0.1-0.8-0.1-1.5-0.1-2.3L1.1,12c0-0.4-0.1-0.9-0.1-1.3L0.9,9.5c-0.1-0.7-0.1-1.3-0.2-2
			c0-0.4,0-0.7-0.1-1.1c0-0.3,0-0.6,0-0.9c0-0.6-0.1-1.2-0.1-1.7C0.5,3.4,0.7,3.1,1,3c0.1,0,4-1.7,11.2-1.9l0.2,0h3.2l0,0
			C21,1.3,24.5,2.2,26,2.7l1.1,0.4c0.1,0,0.2,0.2,0.3,0.4l0,0.1v0.1l0,0.1c0,0.2-0.1,0.4-0.1,0.6c0,0.3,0,0.6,0,0.9c0,0.3,0,0.7,0,1
			c-0.1,0.7-0.1,1.4-0.2,2L27,9.7c-0.1,0.8-0.1,1.6-0.2,2.4l-0.6,8.5L26,23.8c-0.1,0.8-0.1,1.6-0.2,2.3c0,0.7-0.2,0.8-0.8,0.8l-17,0
			C6.3,26.9,4.5,26.9,2.8,26.9L2.8,26.9z M24.2,26c0.3,0,0.8-0.1,0.9-0.9c0-0.6,0.1-1.3,0.1-1.9l0.6-9c0,0,0.3-4.4,0.4-5.5l0.2-2.5
			c0-0.5,0.1-1.1,0.1-1.6c0-0.3-0.2-0.6-0.4-0.8c-0.2-0.1-0.4-0.2-0.5-0.2l-2.2-0.6C23.2,3,23,3,22.8,3c-0.4,0-0.6,0.3-0.9,0.6
			c-0.3,0.4-1,1.3-1,1.3s-1.1,1.4-1.3,1.6l0.7-0.9c0.2-0.2,0.4-0.6,0.3-0.9C20.6,4.3,20.3,4,20,3.9c-0.3-0.2-0.7-0.5-1-0.7
			c-1.6-1-3.2-1.5-4.9-1.5l-0.2,0c-0.4,0-0.8,0.1-1.3,0.1l-0.3,0c-0.4,0.1-0.8,0.1-1.2,0.3C10.2,2.5,9.3,3,8.5,3.5
			C8,3.7,7.7,4,7.5,4.3C7.2,4.5,7.2,5.1,7.4,5.4C7.6,5.6,7.8,5.9,8,6.2C7.2,5.2,6.5,4.3,5.8,3.3C5.6,3.1,5.3,3,5,3H5L4.9,3
			C4,3.2,3.1,3.4,2.3,3.6C1.5,3.8,1.4,4.1,1.4,4.9c0,0.4,0.1,0.8,0.1,1.2c0,0.3,0.1,0.7,0.1,1c0.1,0.8,0.1,1.5,0.1,2.3l0.1,1.2
			c0,0.4,0,0.8,0.1,1.2L2,13.1c0.1,0.7,0.1,1.4,0.2,2.1c0.1,0.8,0.1,1.5,0.1,2.3l0.1,1.2c0,0.4,0.1,0.8,0.1,1.3l0.1,1.2
			c0.1,0.7,0.1,1.3,0.2,2c0,0.4,0,0.8,0.1,1.2l0,0.7c0,0.7,0.3,0.9,1,0.9l7.1,0c0.7,0,2.2,0,2.2,0c0.1,0,0.4,0,0.6-0.2
			c0.1-0.1,0.2-0.3,0.2-0.4V26l0.6,0c0.1,0,0.2,0,0.2,0h3.1C20,26,22.1,26,24.2,26z M14,11.5c0,1.1,0,2.2,0,3.3l0,4.2
			C14,19,14,12,14,11.5z M14,10c0-0.2-0.1-0.3-0.2-0.5c-0.1-0.1-0.1-0.1-0.2-0.1l0.8,0c-0.1,0-0.1,0.1-0.2,0.1C14,9.7,14,9.9,14,10z
			"/>
		<path class="st0" d="M10.9,1.7C10.9,1.7,10.9,1.7,10.9,1.7C9.9,2.1,9,2.6,8.2,3C7.7,3.3,7.4,3.7,7.1,3.9C7.1,4,7,4,7,4.1
			C6.7,3.7,6.4,3.4,6.2,3C5.9,2.7,5.5,2.5,5,2.5l-0.2,0l-0.1,0C3.9,2.7,3,2.9,2.2,3.2C1.5,3.3,1.2,3.6,1,4c0-0.1,0-0.2,0-0.3
			c0-0.1,0.1-0.2,0.1-0.2l0.1,0l0.1,0C1.3,3.4,4.6,2,10.9,1.7 M17.1,1.7c4.5,0.3,7.5,1.1,8.8,1.5l0.9,0.3l0.2,0.1c0,0,0,0.1,0.1,0.1
			c0,0,0,0,0,0c0,0.1-0.1,0.2-0.1,0.4c-0.1-0.3-0.3-0.5-0.5-0.6c-0.3-0.2-0.5-0.2-0.7-0.3l-0.1,0l-1.3-0.3l-0.9-0.2
			c-0.2-0.1-0.4-0.1-0.7-0.1c-0.7,0-1,0.4-1.3,0.8c-0.2,0.3-0.4,0.5-0.6,0.8c-0.2-0.3-0.4-0.5-0.6-0.6C20,3.2,19.6,3,19.3,2.7
			C18.6,2.3,17.8,1.9,17.1,1.7 M2.5,25.9c0.1,0.3,0.3,0.4,0.6,0.5c-0.1,0-0.2,0-0.3,0c-0.2,0-0.2,0-0.2,0c0,0,0,0,0,0c0,0,0,0,0-0.1
			C2.6,26.2,2.6,26,2.5,25.9 M25.3,26c0,0,0,0.1,0,0.1c0,0.2,0,0.3,0,0.3c0,0-0.1,0-0.3,0l-0.2,0C25,26.3,25.2,26.2,25.3,26
			 M15.6,0.6c-1.1,0-2.2,0-3.3,0c0,0-0.1,0-0.1,0C4.7,0.9,0.8,2.5,0.8,2.5C0.3,2.7-0.1,3.3,0,3.8C0.1,4.4,0.1,5,0.1,5.5
			c0,0.7,0,1.3,0.1,2c0.1,1.1,0.2,2.1,0.3,3.2c0,0.4,0.1,0.9,0.1,1.3c0.1,1.2,0.1,2.4,0.2,3.6c0.1,1.1,0.2,2.2,0.3,3.3
			c0,0.4,0.1,0.9,0.1,1.3c0.1,1.2,0.1,2.4,0.2,3.6c0.1,0.9,0.1,1.8,0.2,2.7c0.1,0.5,0.4,1,1.2,1c0,0,0,0,0,0c1.7,0,3.4,0,5,0
			c1.8,0,3.6,0,5.4,0c0,0,0.1,0,0.1,0c3.8,0,7.7,0,11.5,0c0.9,0,1.3-0.4,1.3-1.3c0.1-1,0.1-2.1,0.2-3.1c0.1-0.8,0.1-1.5,0.2-2.3
			c0.1-1,0.1-2,0.2-3.1c0.1-0.8,0.1-1.6,0.2-2.4c0.1-1,0.1-2,0.2-3c0.1-0.8,0.1-1.6,0.2-2.4c0.1-1.2,0.2-2.3,0.3-3.5
			c0-0.6,0-1.3,0.1-1.9c0-0.2,0.1-0.5,0.1-0.7c0-0.1,0-0.1,0-0.2c-0.2-0.3-0.3-0.7-0.7-0.9c-0.1,0-0.2-0.1-0.2-0.1l0,0
			c0,0-3.9-1.7-11.3-1.9C15.7,0.6,15.6,0.6,15.6,0.6L15.6,0.6z M11.1,8.9c-0.3,0-0.5-0.1-0.6-0.3C9.5,7.4,8.7,6.3,7.8,5.1
			c-0.1-0.1,0-0.4,0-0.5c0.3-0.3,0.5-0.5,0.9-0.7c0.8-0.5,1.7-0.9,2.6-1.3c0.4-0.2,0.9-0.2,1.4-0.3c0.4-0.1,0.8-0.1,1.2-0.1
			c0.1,0,0.1,0,0.2,0c1.7,0,3.2,0.5,4.6,1.4c0.3,0.2,0.7,0.5,1,0.7c0.5,0.3,0.5,0.6,0.2,1c-0.8,1.1-1.6,2.2-2.4,3.3
			c-0.2,0.2-0.4,0.4-0.7,0.4c0,0,0,0,0,0c-0.4,0-0.8,0-1.2,0c-0.5,0-1.1,0-1.6,0c0,0,0,0,0,0c-0.5,0-1.1,0-1.6,0
			C11.9,8.9,11.5,8.9,11.1,8.9C11.1,8.9,11.1,8.9,11.1,8.9L11.1,8.9z M16.5,9.9c0.9,0,1.6-0.4,2.1-1.2c0.9-1.2,1.8-2.3,2.7-3.5
			c0.3-0.4,0.7-0.9,1-1.3c0.2-0.3,0.3-0.4,0.5-0.4c0.1,0,0.2,0,0.4,0.1c0.7,0.2,1.4,0.4,2.1,0.6c0.1,0,0.3,0.1,0.4,0.1
			C25.9,4.3,26,4.5,26,4.6c0,0.7-0.1,1.3-0.1,2c-0.1,0.7-0.1,1.4-0.2,2c-0.1,1.2-0.2,2.3-0.2,3.5c0,0.7-0.1,1.4-0.1,2
			c-0.1,1.1-0.2,2.3-0.2,3.4c0,0.7-0.1,1.3-0.1,2c-0.1,1.1-0.2,2.3-0.2,3.4c-0.1,0.7-0.1,1.4-0.1,2.1c0,0.3-0.1,0.4-0.4,0.4
			c0,0,0,0,0,0c-2.2,0-4.4,0-6.5,0c-0.2,0-0.5,0-0.7,0c-0.7,0-1.4,0-2.2,0c-0.1,0-0.2,0-0.3,0c0-0.2,0-0.3,0-0.5c0-3.4,0-6.8,0-10.3
			c0-1.5,0-3,0-4.6c0-0.3,0.1-0.4,0.3-0.4c0,0,0,0,0.1,0c0.1,0,0.2,0,0.2,0c0.2,0,0.5,0,0.7,0c0.2,0,0.3,0,0.5,0
			C16.3,9.8,16.4,9.9,16.5,9.9L16.5,9.9z M5.9,25.5c-0.7,0-1.4,0-2.1,0c-0.4,0-0.4-0.1-0.5-0.4c0-0.6,0-1.3-0.1-1.9
			C3.2,22.1,3.1,21.1,3,20c0-0.4-0.1-0.8-0.1-1.2c-0.1-1.2-0.1-2.4-0.2-3.6c-0.1-1.1-0.2-2.3-0.3-3.4c0-0.4-0.1-0.8-0.1-1.2
			C2.2,9.4,2.2,8.2,2.1,7c0-0.7-0.1-1.5-0.2-2.2c0-0.5,0-0.6,0.5-0.7C3.3,3.9,4.1,3.7,5,3.5c0,0,0,0,0,0c0.1,0,0.3,0.1,0.3,0.2
			C6.8,5.4,8.2,7.2,9.6,9c0.4,0.5,0.9,0.8,1.6,0.8c0.4,0,0.7,0,1.1,0c0.3,0,0.5,0,0.8,0c0,0,0,0,0,0c0.3,0,0.4,0.1,0.4,0.4
			c0,1.4,0,2.7,0,4.1c0,2.7,0,5.4,0,8.1c0,0.9,0,1.9,0,2.8c0,0.3-0.1,0.3-0.3,0.3c0,0,0,0,0,0c-0.8,0-1.5,0-2.3,0
			c-0.8,0-1.6,0-2.4,0C7.6,25.5,6.7,25.5,5.9,25.5L5.9,25.5z"/>
	</g>
	<g>
		<path class="st0" d="M13.4,7.5c-0.1-0.4-0.2-0.8-0.3-1.3L14,7.5C13.8,7.5,13.6,7.5,13.4,7.5z"/>
		<path class="st0" d="M12.3,3.9C12.2,3.9,12.2,3.9,12.3,3.9c0,0.4,0.1,0.8,0.2,1.2C12.6,6,12.8,6.9,13,7.7C13,7.8,13.1,8,13.1,8
			c0.3,0,0.6,0,0.9,0c0.3,0,0.5,0,0.8,0C14,6.6,13.1,5.2,12.3,3.9L12.3,3.9z"/>
	</g>
</g>
</svg>
